<svg width="2987" height="900" viewBox="0 0 2987 900" fill="none" xmlns="http://www.w3.org/2000/svg">
<rect width="2987" height="900" rx="180" fill="#00C896"/>
<path fill-rule="evenodd" clip-rule="evenodd" d="M1157.09 320C1150.66 320 1145.45 325.21 1145.45 331.636V392.997C1129.5 383.482 1108.79 378.182 1087.27 378.182C1065.75 378.182 1045.05 383.482 1029.09 392.997V322.909C1029.09 321.302 1027.79 320 1026.18 320H1011.64C1005.21 320 1000 325.21 1000 331.636V436.364V549.818C1000 551.425 1001.3 552.727 1002.91 552.727H1017.45C1023.88 552.727 1029.09 547.518 1029.09 541.091V436.364C1029.09 427.105 1035.22 418.226 1046.13 411.679C1057.04 405.132 1071.84 401.455 1087.27 401.455C1102.7 401.455 1117.5 405.132 1128.41 411.679C1139.32 418.226 1145.45 427.105 1145.45 436.364V549.818C1145.45 551.425 1146.76 552.727 1148.36 552.727H1162.91C1169.34 552.727 1174.55 547.518 1174.55 541.091V436.364V322.909C1174.55 321.302 1173.24 320 1171.64 320H1157.09ZM1349.09 389.818C1349.09 383.392 1354.3 378.182 1360.73 378.182H1375.27C1376.88 378.182 1378.18 379.484 1378.18 381.091V436.364V494.545V541.091C1378.18 547.518 1372.97 552.727 1366.55 552.727H1352C1350.39 552.727 1349.09 551.425 1349.09 549.818V537.912C1341.77 542.274 1333.4 545.788 1324.31 548.298C1313.72 551.222 1302.37 552.727 1290.91 552.727C1279.45 552.727 1268.1 551.222 1257.51 548.298C1246.92 545.375 1237.3 541.089 1229.2 535.686C1221.09 530.284 1214.67 523.87 1210.28 516.811C1205.89 509.752 1203.64 502.186 1203.64 494.545V436.364C1203.64 420.933 1212.83 406.134 1229.2 395.223C1245.56 384.312 1267.76 378.182 1290.91 378.182C1312.43 378.182 1333.13 383.482 1349.09 392.997V389.818ZM1332.05 411.679C1342.96 418.226 1349.09 427.105 1349.09 436.364V494.545C1349.09 499.13 1347.59 503.669 1344.66 507.905C1341.74 512.14 1337.45 515.988 1332.05 519.23C1326.65 522.472 1320.23 525.043 1313.17 526.797C1306.12 528.552 1298.55 529.455 1290.91 529.455C1283.27 529.455 1275.7 528.552 1268.64 526.797C1261.58 525.043 1255.17 522.472 1249.77 519.23C1244.37 515.988 1240.08 512.14 1237.16 507.905C1234.23 503.669 1232.73 499.13 1232.73 494.545V436.364C1232.73 427.105 1238.86 418.226 1249.77 411.679C1260.68 405.132 1275.48 401.455 1290.91 401.455C1306.34 401.455 1321.14 405.132 1332.05 411.679ZM1556.26 395.223C1572.62 406.134 1581.82 420.933 1581.82 436.364V541.091C1581.82 547.518 1576.61 552.727 1570.18 552.727H1555.64C1554.03 552.727 1552.73 551.425 1552.73 549.818V436.364C1552.73 427.105 1546.6 418.226 1535.69 411.679C1524.78 405.132 1509.98 401.455 1494.55 401.455C1479.11 401.455 1464.32 405.132 1453.4 411.679C1442.49 418.226 1436.36 427.105 1436.36 436.364V541.091C1436.36 547.518 1431.15 552.727 1424.73 552.727H1410.18C1408.58 552.727 1407.27 551.425 1407.27 549.818V436.364V389.818C1407.27 383.392 1412.48 378.182 1418.91 378.182H1433.45C1435.06 378.182 1436.36 379.484 1436.36 381.091V392.997C1452.32 383.482 1473.02 378.182 1494.55 378.182C1517.69 378.182 1539.89 384.312 1556.26 395.223ZM1756.36 331.636C1756.36 325.21 1761.57 320 1768 320H1782.55C1784.15 320 1785.45 321.302 1785.45 322.909V436.364V494.545V541.091C1785.45 547.518 1780.24 552.727 1773.82 552.727H1759.27C1757.67 552.727 1756.36 551.425 1756.36 549.818V537.912C1749.05 542.274 1740.67 545.788 1731.58 548.298C1720.99 551.222 1709.64 552.727 1698.18 552.727C1686.72 552.727 1675.37 551.222 1664.78 548.298C1654.2 545.375 1644.57 541.089 1636.47 535.686C1628.37 530.284 1621.94 523.87 1617.55 516.811C1613.17 509.752 1610.91 502.186 1610.91 494.545V436.364C1610.91 420.933 1620.1 406.134 1636.47 395.223C1652.84 384.312 1675.04 378.182 1698.18 378.182C1719.7 378.182 1740.41 383.482 1756.36 392.997V331.636ZM1739.32 411.679C1750.23 418.226 1756.36 427.105 1756.36 436.364V494.545C1756.36 499.13 1754.86 503.669 1751.93 507.905C1749.01 512.14 1744.73 515.988 1739.32 519.23C1733.92 522.472 1727.51 525.043 1720.45 526.797C1713.39 528.552 1705.82 529.455 1698.18 529.455C1690.54 529.455 1682.98 528.552 1675.92 526.797C1668.86 525.043 1662.44 522.472 1657.04 519.23C1651.64 515.988 1647.35 512.14 1644.43 507.905C1641.51 503.669 1640 499.13 1640 494.545V436.364C1640 427.105 1646.13 418.226 1657.04 411.679C1667.95 405.132 1682.75 401.455 1698.18 401.455C1713.61 401.455 1728.41 405.132 1739.32 411.679ZM1971.64 378.182C1965.21 378.182 1960 383.392 1960 389.818V494.545C1960 499.13 1958.5 503.669 1955.57 507.905C1952.65 512.14 1948.36 515.988 1942.96 519.23C1937.56 522.472 1931.14 525.043 1924.08 526.797C1917.02 528.552 1909.46 529.455 1901.82 529.455C1894.18 529.455 1886.61 528.552 1879.55 526.797C1872.49 525.043 1866.08 522.472 1860.68 519.23C1855.27 515.988 1850.99 512.14 1848.07 507.905C1845.14 503.669 1843.64 499.13 1843.64 494.545V381.091C1843.64 379.484 1842.33 378.182 1840.73 378.182H1826.18C1819.76 378.182 1814.55 383.392 1814.55 389.818V494.545C1814.55 502.186 1816.8 509.752 1821.19 516.811C1825.57 523.87 1832 530.284 1840.11 535.686C1848.21 541.089 1857.83 545.375 1868.42 548.298C1879.01 551.222 1890.36 552.727 1901.82 552.727C1913.28 552.727 1924.63 551.222 1935.22 548.298C1944.31 545.788 1952.68 542.274 1960 537.912V581.818C1960 586.403 1958.5 590.942 1955.57 595.177C1952.65 599.413 1948.36 603.261 1942.96 606.503C1937.56 609.744 1931.14 612.316 1924.08 614.07C1917.02 615.824 1909.46 616.727 1901.82 616.727C1894.18 616.727 1886.61 615.824 1879.55 614.07C1872.49 612.316 1866.08 609.744 1860.68 606.503C1855.27 603.261 1850.99 599.413 1848.07 595.177C1845.14 590.942 1843.64 586.403 1843.64 581.818V573.091C1843.64 571.484 1842.33 570.182 1840.73 570.182H1826.18C1819.76 570.182 1814.55 575.392 1814.55 581.818C1814.55 589.459 1816.8 597.024 1821.19 604.083C1825.57 611.142 1832 617.556 1840.11 622.959C1848.21 628.362 1857.83 632.647 1868.42 635.571C1879.01 638.495 1890.36 640 1901.82 640C1913.28 640 1924.63 638.495 1935.22 635.571C1945.8 632.647 1955.43 628.362 1963.53 622.959C1971.63 617.556 1978.06 611.142 1982.45 604.083C1986.83 597.024 1989.09 589.459 1989.09 581.818V494.545V381.091C1989.09 379.484 1987.79 378.182 1986.18 378.182H1971.64ZM2105.45 331.636C2105.45 325.21 2110.66 320 2117.09 320H2134.55H2192.73C2204.19 320 2215.54 321.505 2226.13 324.429C2236.71 327.353 2246.33 331.638 2254.44 337.041C2262.54 342.444 2268.97 348.858 2273.36 355.917C2277.74 362.976 2280 370.541 2280 378.182C2280 393.613 2270.81 408.411 2254.44 419.323C2251.5 421.281 2248.38 423.085 2245.09 424.727C2248.39 426.376 2251.51 428.181 2254.44 430.132C2262.54 435.535 2268.97 441.949 2273.36 449.008C2277.74 456.066 2280 463.632 2280 471.273V494.545C2280 509.976 2270.81 524.775 2254.44 535.686C2238.07 546.597 2215.87 552.727 2192.73 552.727H2134.55H2108.36C2106.76 552.727 2105.45 551.425 2105.45 549.818V331.636ZM2192.73 413.091L2134.55 413.091V343.273H2192.73C2200.37 343.273 2207.93 344.176 2214.99 345.93C2222.05 347.684 2228.47 350.256 2233.87 353.497C2239.27 356.739 2243.56 360.587 2246.48 364.823C2249.4 369.058 2250.91 373.597 2250.91 378.182C2250.91 387.44 2244.78 396.32 2233.87 402.866C2222.96 409.413 2208.16 413.091 2192.73 413.091ZM2134.55 529.455V436.364H2192.73C2200.37 436.364 2207.93 437.267 2214.99 439.021C2222.05 440.775 2228.47 443.347 2233.87 446.588C2239.27 449.83 2243.56 453.678 2246.48 457.914C2249.4 462.149 2250.91 466.688 2250.91 471.273V494.545C2250.91 503.804 2244.78 512.683 2233.87 519.23C2222.96 525.777 2208.16 529.455 2192.73 529.455H2134.55ZM2454.55 389.818C2454.55 383.392 2459.76 378.182 2466.18 378.182H2480.73C2482.33 378.182 2483.64 379.484 2483.64 381.091V494.545V541.091C2483.64 547.518 2478.43 552.727 2472 552.727H2457.45C2455.85 552.727 2454.55 551.425 2454.55 549.818V537.912C2447.23 542.274 2438.85 545.788 2429.76 548.298C2419.17 551.222 2407.82 552.727 2396.36 552.727C2384.9 552.727 2373.55 551.222 2362.97 548.298C2352.38 545.375 2342.76 541.089 2334.65 535.686C2326.55 530.284 2320.12 523.87 2315.73 516.811C2311.35 509.752 2309.09 502.186 2309.09 494.545V389.818C2309.09 383.392 2314.3 378.182 2320.73 378.182H2335.27C2336.88 378.182 2338.18 379.484 2338.18 381.091V494.545C2338.18 499.13 2339.69 503.669 2342.61 507.905C2345.53 512.14 2349.82 515.988 2355.22 519.23C2360.63 522.472 2367.04 525.043 2374.1 526.797C2381.16 528.552 2388.72 529.455 2396.36 529.455C2404 529.455 2411.57 528.552 2418.63 526.797C2425.69 525.043 2432.1 522.472 2437.5 519.23C2442.91 515.988 2447.19 512.14 2450.12 507.905C2453.04 503.669 2454.55 499.13 2454.55 494.545V389.818ZM2687.27 436.364C2687.27 420.933 2678.08 406.134 2661.71 395.223C2645.34 384.312 2623.15 378.182 2600 378.182C2576.85 378.182 2554.66 384.312 2538.29 395.223C2521.92 406.134 2512.73 420.933 2512.73 436.364C2512.73 441.712 2514.98 447.008 2519.37 451.949C2523.76 456.891 2530.19 461.38 2538.29 465.162C2546.39 468.944 2556.01 471.944 2566.6 473.991C2577.19 476.037 2588.54 477.091 2600 477.091C2615.43 477.091 2630.23 478.93 2641.14 482.203C2652.05 485.477 2658.18 489.916 2658.18 494.545C2658.18 499.13 2656.68 503.669 2653.75 507.905C2650.83 512.14 2646.54 515.988 2641.14 519.23C2635.74 522.472 2629.32 525.043 2622.27 526.797C2615.21 528.552 2607.64 529.455 2600 529.455C2592.36 529.455 2584.79 528.552 2577.73 526.797C2570.68 525.043 2564.26 522.472 2558.86 519.23C2553.46 515.988 2549.17 512.14 2546.25 507.905C2543.32 503.669 2541.82 499.13 2541.82 494.545V485.818C2541.82 484.212 2540.52 482.909 2538.91 482.909H2524.36C2517.94 482.909 2512.73 488.119 2512.73 494.545C2512.73 502.186 2514.98 509.752 2519.37 516.811C2523.76 523.87 2530.19 530.284 2538.29 535.686C2546.39 541.089 2556.01 545.375 2566.6 548.298C2577.19 551.222 2588.54 552.727 2600 552.727C2611.46 552.727 2622.81 551.222 2633.4 548.298C2643.99 545.375 2653.61 541.089 2661.71 535.686C2669.82 530.284 2676.24 523.87 2680.63 516.811C2685.02 509.752 2687.27 502.186 2687.27 494.545C2687.27 483.744 2678.08 473.385 2661.71 465.747C2645.34 458.109 2623.15 453.818 2600 453.818C2584.57 453.818 2569.77 451.979 2558.86 448.706C2547.95 445.433 2541.82 440.993 2541.82 436.364C2541.82 427.105 2547.95 418.226 2558.86 411.679C2569.77 405.132 2584.57 401.455 2600 401.455C2615.43 401.455 2630.23 405.132 2641.14 411.679C2652.05 418.226 2658.18 427.105 2658.18 436.364V445.091C2658.18 446.698 2659.48 448 2661.09 448H2675.64C2682.06 448 2687.27 442.79 2687.27 436.364Z" fill="white"/>
<path fill-rule="evenodd" clip-rule="evenodd" d="M364.865 300H835.135C843.653 300 852.088 301.678 859.958 304.938C867.828 308.197 874.978 312.975 881.002 318.998C887.025 325.022 891.803 332.172 895.062 340.042C898.322 347.912 900 356.347 900 364.865V514.865C900 523.383 898.322 531.818 895.062 539.688C891.803 547.557 887.025 554.708 881.002 560.731C874.978 566.755 867.828 571.532 859.958 574.792C852.088 578.052 843.653 579.73 835.135 579.73H684.213C660.22 592.801 630.636 600 600 600C569.364 600 539.78 592.801 515.787 579.73H364.865C356.347 579.73 347.912 578.052 340.042 574.792C332.172 571.532 325.022 566.755 318.998 560.731C312.975 554.708 308.197 547.557 304.938 539.688C301.678 531.818 300 523.383 300 514.865V364.865C300 347.662 306.834 331.163 318.998 318.998C331.163 306.834 347.662 300 364.865 300ZM364.865 547.297L477.492 547.297C467.51 533.633 462.162 518.362 462.162 502.703C462.162 495.249 463.63 487.869 466.483 480.983C469.335 474.097 473.516 467.84 478.786 462.57C484.056 457.299 490.313 453.119 497.199 450.266C504.085 447.414 511.466 445.946 518.919 445.946C526.372 445.946 533.753 447.414 540.639 450.266C547.525 453.119 553.782 457.299 559.052 462.57C564.322 467.84 568.503 474.097 571.355 480.983C574.208 487.869 575.676 495.249 575.676 502.703C575.676 523.284 566.438 543.192 549.584 559.667C564.916 564.805 582.226 567.568 600 567.568C617.774 567.568 635.084 564.805 650.416 559.667C633.562 543.192 624.324 523.284 624.324 502.703C624.324 495.249 625.792 487.869 628.645 480.983C631.497 474.097 635.678 467.84 640.948 462.57C646.218 457.299 652.475 453.119 659.361 450.266C666.247 447.414 673.628 445.946 681.081 445.946C688.535 445.946 695.915 447.414 702.801 450.266C709.687 453.119 715.944 457.299 721.214 462.57C726.485 467.84 730.665 474.097 733.518 480.983C736.37 487.869 737.838 495.249 737.838 502.703C737.838 518.362 732.49 533.633 722.508 547.297H835.135C839.394 547.297 843.612 546.458 847.547 544.829C851.481 543.199 855.057 540.81 858.068 537.798C861.08 534.786 863.469 531.211 865.099 527.276C866.729 523.341 867.568 519.124 867.568 514.865V364.865C867.568 360.606 866.729 356.388 865.099 352.454C863.469 348.519 861.08 344.943 858.068 341.932C855.057 338.92 851.481 336.531 847.547 334.901C843.612 333.271 839.394 332.432 835.135 332.432H364.865C356.263 332.432 348.014 335.849 341.932 341.932C335.849 348.014 332.432 356.263 332.432 364.865V514.865C332.432 519.124 333.271 523.341 334.901 527.276C336.531 531.211 338.92 534.786 341.932 537.798C344.943 540.81 348.519 543.199 352.454 544.829C356.388 546.458 360.606 547.297 364.865 547.297ZM518.919 544.15C534.573 532.553 543.243 517.903 543.243 502.703C543.243 499.508 542.614 496.345 541.392 493.394C540.169 490.443 538.378 487.762 536.119 485.503C533.86 483.244 531.179 481.452 528.227 480.23C525.276 479.008 522.113 478.378 518.919 478.378C515.725 478.378 512.562 479.008 509.61 480.23C506.659 481.452 503.978 483.244 501.719 485.503C499.46 487.762 497.669 490.443 496.446 493.394C495.224 496.345 494.595 499.508 494.595 502.703C494.595 517.903 503.264 532.553 518.919 544.15ZM705.405 502.703C705.405 517.903 696.736 532.553 681.081 544.15C665.427 532.553 656.757 517.903 656.757 502.703C656.757 499.508 657.386 496.345 658.608 493.394C659.831 490.443 661.622 487.762 663.881 485.503C666.14 483.244 668.821 481.452 671.773 480.23C674.724 479.008 677.887 478.378 681.081 478.378C684.275 478.378 687.438 479.008 690.39 480.23C693.341 481.452 696.022 483.244 698.281 485.503C700.54 487.762 702.331 490.443 703.554 493.394C704.776 496.345 705.405 499.508 705.405 502.703Z" fill="white"/>
</svg>
